<svg id="Layer_1" data-name="Layer 1" xmlns="http://www.w3.org/2000/svg" viewBox="0 0 595.28 425.2"><defs><style>.cls-1{fill:#797984;}.cls-2{fill:#5bb935;}.cls-3{fill:#1450a8;}.cls-4{fill:#ff8812;}</style></defs><rect class="cls-1" x="241.67" y="154.11" width="27.09" height="67.71" transform="translate(67.25 443.18) rotate(-90)"/><rect class="cls-2" x="344.85" y="108.59" width="27.09" height="92.92"/><rect class="cls-3" x="229.07" y="100.88" width="27.09" height="92.92" transform="matrix(0, -1, 1, 0, 95.28, 389.95)"/><rect class="cls-4" x="221.36" y="214.46" width="27.09" height="92.92" transform="matrix(-1, 0, 0, -1, 469.81, 521.84)"/><rect class="cls-3" x="339.12" y="222.17" width="27.09" height="92.92" transform="matrix(0, 1, -1, 0, 621.29, -84.03)"/><rect class="cls-1" x="304.81" y="133.79" width="27.09" height="67.71"/><rect class="cls-1" x="326.52" y="194.15" width="27.09" height="67.71" transform="translate(568.06 -112.06) rotate(90)"/><rect class="cls-1" x="263.38" y="214.46" width="27.09" height="67.71" transform="matrix(-1, 0, 0, -1, 553.84, 496.63)"/></svg>