<?xml version="1.0" encoding="utf-8"?>
<!-- Generator: Adobe Illustrator 26.1.0, SVG Export Plug-In . SVG Version: 6.00 Build 0)  -->
<svg version="1.1" id="Layer_1" xmlns="http://www.w3.org/2000/svg" xmlns:xlink="http://www.w3.org/1999/xlink" x="0px" y="0px"
	 viewBox="0 0 595.28 425.2" style="enable-background:new 0 0 595.28 425.2;" xml:space="preserve">
<style type="text/css">
	.st0{fill:#818185;}
	.st1{fill:#4269B0;}
	.st2{fill:#F19021;}
	.st3{fill:#71BE46;}
	.st4{fill:#F19121;}
	.st5{fill:#1450A8;}
	.st6{font-family:'Arial-BoldMT';}
	.st7{font-size:42.4789px;}
	.st8{fill:#797984;}
	.st9{fill:#5BB935;}
	.st10{fill:#FF8812;}
</style>
<g>
	<text transform="matrix(1 0 0 1 -676.23 159.6756)" class="st1 st6" style="font-size:21.4255px;">Parexellence</text>
</g>
<g>
	<text transform="matrix(1 0 0 1 -650.8828 172.868)" class="st2" style="font-family:'ArialMT'; font-size:10.1077px;">Printing at its best</text>
</g>
<g>
	<text transform="matrix(1 0 0 1 -325.9001 164.3903)" class="st1 st6" style="font-size:21.1314px;">Parexellence</text>
</g>
<g>
	<text transform="matrix(1 0 0 1 -300.9011 177.402)" class="st2" style="font-family:'ArialMT'; font-size:9.969px;">Printing at its best</text>
</g>
<rect x="-634.98" y="104.13" transform="matrix(-1 5.183597e-14 -5.183597e-14 -1 -1252.5125 216.1095)" class="st0" width="17.45" height="7.85"/>
<rect x="-622.33" y="91.35" transform="matrix(-1.038556e-13 -1 1 -1.038556e-13 -708.8767 -518.3305)" class="st0" width="17.45" height="7.85"/>
<rect x="-609.68" y="104.13" transform="matrix(-1 5.183597e-14 -5.183597e-14 -1 -1201.902 216.1095)" class="st0" width="17.45" height="7.85"/>
<rect x="-622.33" y="116.78" transform="matrix(5.221883e-14 1 -1 5.221883e-14 -492.8962 734.311)" class="st0" width="17.45" height="7.85"/>
<rect x="-606.44" y="86.55" class="st1" width="14.37" height="14.37"/>
<rect x="-634.98" y="86.55" class="st2" width="14.37" height="14.37"/>
<rect x="-634.98" y="115.06" class="st0" width="14.37" height="14.37"/>
<rect x="-606.44" y="115.06" class="st3" width="14.37" height="14.37"/>
<rect x="-590.78" y="357.95" transform="matrix(-1 6.959954e-14 -6.959954e-14 -1 -1155.4573 727.6456)" class="st0" width="26.1" height="11.74"/>
<rect x="-571.86" y="338.83" transform="matrix(-1.047438e-13 -1 1 -1.047438e-13 -903.5118 -214.0988)" class="st0" width="26.1" height="11.74"/>
<rect x="-552.93" y="357.95" transform="matrix(-1 6.959954e-14 -6.959954e-14 -1 -1079.7639 727.6456)" class="st0" width="26.1" height="11.74"/>
<rect x="-571.86" y="376.87" transform="matrix(6.909422e-14 1 -1 6.909422e-14 -176.0592 941.5514)" class="st0" width="26.1" height="11.74"/>
<rect x="-548.09" y="331.66" class="st1" width="21.49" height="21.49"/>
<rect x="-590.78" y="331.66" class="st2" width="21.49" height="21.49"/>
<rect x="-590.78" y="374.31" class="st0" width="21.49" height="21.49"/>
<rect x="-548.09" y="374.31" class="st3" width="21.49" height="21.49"/>
<rect x="-517.99" y="358.15" transform="matrix(-0.7071 -0.7071 0.7071 -0.7071 -1119.3817 264.3782)" class="st2" width="26.1" height="11.74"/>
<rect x="-507.73" y="347.89" transform="matrix(0.7071 0.7071 -0.7071 0.7071 105.2619 453.4096)" class="st2" width="26.1" height="11.74"/>
<rect x="-497.6" y="327.37" transform="matrix(0.7071 -0.7071 0.7071 0.7071 -377.5569 -245.028)" class="st1" width="26.1" height="11.74"/>
<rect x="-487.35" y="337.62" transform="matrix(-0.7071 0.7071 -0.7071 -0.7071 -566.7957 921.7564)" class="st1" width="26.1" height="11.74"/>
<rect x="-467.24" y="347.58" transform="matrix(0.7071 0.7071 -0.7071 0.7071 116.8975 424.6833)" class="st3" width="26.1" height="11.74"/>
<rect x="-477.49" y="357.83" transform="matrix(-0.7071 -0.7071 0.7071 -0.7071 -1050.0303 292.4691)" class="st3" width="26.1" height="11.74"/>
<rect x="-487.62" y="378.36" transform="matrix(-0.7071 0.7071 -0.7071 -0.7071 -538.452 991.4993)" class="st0" width="26.1" height="11.74"/>
<rect x="-497.88" y="368.11" transform="matrix(0.7071 -0.7071 0.7071 0.7071 -406.4453 -233.2876)" class="st0" width="26.1" height="11.74"/>
<g>
	<g>
		<polygon class="st2" points="-462.73,230.35 -460.38,233.01 -448.21,220.95 -450.88,218.18 		"/>
		<polygon class="st2" points="-448.21,232.16 -445.76,229.6 -433.7,241.66 -436.26,244.01 		"/>
		<polygon class="st3" points="-437.01,227.14 -434.55,229.6 -422.28,217.11 -424.95,214.77 		"/>
		<polygon class="st0" points="-440.96,223.62 -437.97,226.29 -432.21,220.74 -435.09,218.18 		"/>
		<polygon class="st0" points="-442.45,221.06 -440.1,218.71 -445.65,213.7 -448.21,216.15 		"/>
		<polygon class="st1" points="-451.63,206.23 -439.36,218.18 -437.01,215.94 -449.39,203.77 		"/>
		<polygon class="st0" points="-452.7,227.14 -450.56,229.6 -444.91,224.16 -447.25,221.7 		"/>
		<polygon class="st0" points="-444.91,228.64 -439.14,234.3 -436.58,232.05 -442.34,226.29 		"/>
	</g>
	<g>
		<text transform="matrix(1 0 0 1 -500.7774 260.3642)" class="st1 st6" style="font-size:21.9248px;">Parexellence</text>
	</g>
	<g>
		<text transform="matrix(1 0 0 1 -474.8409 273.8661)" class="st2" style="font-family:'ArialMT'; font-size:10.3433px;">Printing at its best</text>
	</g>
</g>
<g>
	<text transform="matrix(1 0 0 1 -500.0596 159.6749)" class="st1 st6" style="font-size:21.7369px;">Parexellence</text>
</g>
<g>
	<text transform="matrix(1 0 0 1 -659.7758 353.8818)" class="st1 st6" style="font-size:22.1826px;">Parexellence</text>
</g>
<g>
	<text transform="matrix(1 0 0 1 -474.3447 173.0597)" class="st2" style="font-family:'ArialMT'; font-size:10.2547px;">Printing at its best</text>
</g>
<g>
	<text transform="matrix(1 0 0 1 -383.3694 251.4757)" class="st1 st6" style="font-size:19.9982px;">Parexellence</text>
</g>
<g>
	<text transform="matrix(1 0 0 1 -359.7112 263.7892)" class="st2" style="font-family:'ArialMT'; font-size:9.4344px;">Printing at its best</text>
</g>
<g>
	
		<rect x="-464.57" y="97.77" transform="matrix(3.890834e-13 -1 1 3.890834e-13 -557.1976 -353.2375)" class="st2" width="18.71" height="8.42"/>
	
		<rect x="-454.18" y="97.77" transform="matrix(-2.915062e-13 1 -1 -2.915062e-13 -342.8421 546.8024)" class="st2" width="18.71" height="8.42"/>
	<rect x="-438.64" y="92.5" class="st1" width="18.71" height="8.42"/>
	
		<rect x="-438.64" y="102.89" transform="matrix(-1 -3.891446e-13 3.891446e-13 -1 -858.5613 214.2068)" class="st1" width="18.71" height="8.42"/>
	
		<rect x="-433.49" y="118.14" transform="matrix(-3.892058e-13 1 -1 -3.892058e-13 -301.7886 546.4802)" class="st3" width="18.71" height="8.42"/>
	
		<rect x="-443.89" y="118.14" transform="matrix(4.370450e-13 -1 1 4.370450e-13 -556.8755 -312.1839)" class="st3" width="18.71" height="8.42"/>
	
		<rect x="-459.43" y="123.41" transform="matrix(-1 -3.402948e-13 3.402948e-13 -1 -900.1426 255.2357)" class="st0" width="18.71" height="8.42"/>
	<rect x="-459.43" y="113.01" class="st0" width="18.71" height="8.42"/>
</g>
<g>
	
		<rect x="-693.3" y="336.52" transform="matrix(3.730962e-13 -1 1 3.730962e-13 -1026.4675 -347.9275)" class="st2" width="12.2" height="5.49"/>
	
		<rect x="-686.52" y="336.52" transform="matrix(-2.986116e-13 1 -1 -2.986116e-13 -341.1481 1019.6882)" class="st2" width="12.2" height="5.49"/>
	<rect x="-676.38" y="333.09" class="st1" width="12.2" height="5.49"/>
	
		<rect x="-676.38" y="339.87" transform="matrix(-1 -4.473203e-13 4.473203e-13 -1 -1340.5651 685.2225)" class="st1" width="12.2" height="5.49"/>
	
		<rect x="-673.03" y="349.81" transform="matrix(-2.986116e-13 1 -1 -2.986116e-13 -314.3746 1019.4781)" class="st3" width="12.2" height="5.49"/>
	
		<rect x="-679.81" y="349.81" transform="matrix(3.730962e-13 -1 1 3.730962e-13 -1026.2574 -321.154)" class="st3" width="12.2" height="5.49"/>
	
		<rect x="-689.94" y="353.24" transform="matrix(-1 -4.473203e-13 4.473203e-13 -1 -1367.6826 711.9799)" class="st0" width="12.2" height="5.49"/>
	<rect x="-689.94" y="346.47" class="st0" width="12.2" height="5.49"/>
</g>
<g>
	<text transform="matrix(1 0 0 1 -659.8723 314.435)" class="st1 st6" style="font-size:22.1826px;">Parexellence</text>
</g>
<g>
	
		<rect x="-682.55" y="300.57" transform="matrix(4.752367e-13 -1 1 4.752367e-13 -981.0176 -376.4241)" class="st2" width="7.66" height="3.45"/>
	
		<rect x="-678.3" y="300.57" transform="matrix(-2.373273e-13 1 -1 -2.373273e-13 -372.1698 976.7634)" class="st2" width="7.66" height="3.45"/>
	<rect x="-671.94" y="298.42" class="st1" width="7.66" height="3.45"/>
	
		<rect x="-671.94" y="302.67" transform="matrix(-1 -4.752979e-13 4.752979e-13 -1 -1336.2126 608.7869)" class="st1" width="7.66" height="3.45"/>
	
		<rect x="-669.83" y="308.91" transform="matrix(-3.563432e-13 1 -1 -3.563432e-13 -355.3689 976.6316)" class="st3" width="7.66" height="3.45"/>
	
		<rect x="-674.08" y="308.91" transform="matrix(4.752367e-13 -1 1 4.752367e-13 -980.8858 -359.6231)" class="st3" width="7.66" height="3.45"/>
	
		<rect x="-680.44" y="311.07" transform="matrix(-1 -4.752979e-13 4.752979e-13 -1 -1353.2295 625.5778)" class="st0" width="7.66" height="3.45"/>
	<rect x="-680.44" y="306.81" class="st0" width="7.66" height="3.45"/>
</g>
<g>
	<text transform="matrix(1 0 0 1 -659.9967 279.765)" class="st1 st6" style="font-size:22.1826px;">Parexellence</text>
</g>
<g>
	
		<rect x="-695.55" y="271.56" transform="matrix(-0.7071 -0.7071 0.7071 -0.7071 -1372.0183 -20.4143)" class="st2" width="10.63" height="4.78"/>
	
		<rect x="-691.38" y="267.38" transform="matrix(0.7071 0.7071 -0.7071 0.7071 -10.1859 564.1319)" class="st2" width="10.63" height="4.78"/>
	
		<rect x="-687.25" y="259.02" transform="matrix(0.7071 -0.7071 0.7071 0.7071 -384.5772 -405.6357)" class="st1" width="10.63" height="4.78"/>
	
		<rect x="-683.07" y="263.19" transform="matrix(-0.7071 0.7071 -0.7071 -0.7071 -969.2079 932.6282)" class="st1" width="10.63" height="4.78"/>
	
		<rect x="-674.88" y="267.25" transform="matrix(0.7071 0.7071 -0.7071 0.7071 -5.4463 552.4305)" class="st3" width="10.63" height="4.78"/>
	
		<rect x="-679.06" y="271.43" transform="matrix(-0.7071 -0.7071 0.7071 -0.7071 -1343.7686 -8.9718)" class="st3" width="10.63" height="4.78"/>
	
		<rect x="-683.18" y="279.79" transform="matrix(-0.7071 0.7071 -0.7071 -0.7071 -957.6624 961.0373)" class="st0" width="10.63" height="4.78"/>
	
		<rect x="-687.36" y="275.61" transform="matrix(0.7071 -0.7071 0.7071 0.7071 -396.3447 -400.8534)" class="st0" width="10.63" height="4.78"/>
</g>
<g>
	<text transform="matrix(1 0 0 1 -394.629 391.0093)" class="st1 st6" style="font-size:22.1826px;">Parexellence</text>
</g>
<g>
	
		<rect x="-430.19" y="382.8" transform="matrix(-0.7071 -0.7071 0.7071 -0.7071 -997.6688 357.135)" class="st2" width="10.63" height="4.78"/>
	
		<rect x="-426.01" y="378.62" transform="matrix(0.7071 0.7071 -0.7071 0.7071 146.2001 409.0713)" class="st2" width="10.63" height="4.78"/>
	
		<rect x="-421.88" y="370.26" transform="matrix(0.7071 -0.7071 0.7071 0.7071 -385.5144 -185.4097)" class="st1" width="10.63" height="4.78"/>
	
		<rect x="-417.71" y="374.44" transform="matrix(-0.7071 0.7071 -0.7071 -0.7071 -437.5352 934.8908)" class="st1" width="10.63" height="4.78"/>
	
		<rect x="-409.51" y="378.49" transform="matrix(0.7071 0.7071 -0.7071 0.7071 150.9398 397.3699)" class="st3" width="10.63" height="4.78"/>
	
		<rect x="-413.69" y="382.67" transform="matrix(-0.7071 -0.7071 0.7071 -0.7071 -969.4191 368.5775)" class="st3" width="10.63" height="4.78"/>
	
		<rect x="-417.82" y="391.03" transform="matrix(-0.7071 0.7071 -0.7071 -0.7071 -425.9897 963.3)" class="st0" width="10.63" height="4.78"/>
	
		<rect x="-421.99" y="386.86" transform="matrix(0.7071 -0.7071 0.7071 0.7071 -397.2819 -180.6274)" class="st0" width="10.63" height="4.78"/>
</g>
<g>
	
		<rect x="-488.73" y="383.55" transform="matrix(-0.7071 -0.7071 0.7071 -0.7071 -1094.7539 318.425)" class="st2" width="14.6" height="4.78"/>
	
		<rect x="-477.61" y="371.1" transform="matrix(0.7071 -0.7071 0.7071 0.7071 -401.8536 -223.1684)" class="st1" width="14.6" height="4.78"/>
	
		<rect x="-465.28" y="382.08" transform="matrix(0.7071 0.7071 -0.7071 0.7071 137.7205 436.4541)" class="st3" width="14.6" height="4.78"/>
	
		<rect x="-476.37" y="394.49" transform="matrix(-0.7071 0.7071 -0.7071 -0.7071 -520.1106 1009.2106)" class="st0" width="14.6" height="4.78"/>
	
		<rect x="-481.17" y="380.78" transform="matrix(0.7071 0.7071 -0.7071 0.7071 131.567 448.7049)" class="st2" width="10.63" height="4.78"/>
	
		<rect x="-472.86" y="376.59" transform="matrix(-0.7071 0.7071 -0.7071 -0.7071 -530.1744 977.5693)" class="st1" width="10.63" height="4.78"/>
	
		<rect x="-468.85" y="384.82" transform="matrix(-0.7071 -0.7071 0.7071 -0.7071 -1065.1031 333.25)" class="st3" width="10.63" height="4.78"/>
	
		<rect x="-477.15" y="389.01" transform="matrix(0.7071 -0.7071 0.7071 0.7071 -414.9599 -218.9998)" class="st0" width="10.63" height="4.78"/>
</g>
<rect x="-343.91" y="207.19" transform="matrix(-0.7071 -0.7071 0.7071 -0.7071 -722.277 122.5262)" class="st2" width="16.29" height="7.33"/>
<rect x="-337.51" y="200.79" transform="matrix(0.7071 0.7071 -0.7071 0.7071 48.1015 292.7779)" class="st4" width="16.29" height="7.33"/>
<rect x="-331.19" y="187.98" transform="matrix(0.7071 -0.7071 0.7071 0.7071 -230.1269 -172.2949)" class="st1" width="16.29" height="7.33"/>
<rect x="-324.79" y="194.37" transform="matrix(-0.7071 0.7071 -0.7071 -0.7071 -400.5081 561.9745)" class="st1" width="16.29" height="7.33"/>
<rect x="-312.24" y="200.59" transform="matrix(0.7071 0.7071 -0.7071 0.7071 55.3631 274.8503)" class="st3" width="16.29" height="7.33"/>
<rect x="-318.64" y="206.99" transform="matrix(-0.7071 -0.7071 0.7071 -0.7071 -678.9958 140.0573)" class="st3" width="16.29" height="7.33"/>
<rect x="-324.96" y="219.8" transform="matrix(-0.7071 0.7071 -0.7071 -0.7071 -382.8192 605.5001)" class="st0" width="16.29" height="7.33"/>
<rect x="-331.36" y="213.4" transform="matrix(0.7071 -0.7071 0.7071 0.7071 -248.1558 -164.9679)" class="st0" width="16.29" height="7.33"/>
<rect x="-282.6" y="116.44" transform="matrix(-0.7071 0.7071 -0.7071 -0.7071 -382.6627 399.1199)" class="st0" width="17.21" height="7.75"/>
<rect x="-282.69" y="98.7" transform="matrix(-0.7071 -0.7071 0.7071 -0.7071 -540.4148 -18.7071)" class="st0" width="17.21" height="7.75"/>
<rect x="-264.95" y="98.79" transform="matrix(-0.7071 0.7071 -0.7071 -0.7071 -365.0148 356.5141)" class="st0" width="17.21" height="7.75"/>
<rect x="-264.95" y="116.44" transform="matrix(0.7071 0.7071 -0.7071 0.7071 9.9892 216.4999)" class="st0" width="17.21" height="7.75"/>
<rect x="-272.23" y="84.4" transform="matrix(0.7071 -0.7071 0.7071 0.7071 -142.351 -160.6923)" class="st1" width="14.17" height="14.17"/>
<rect x="-292.14" y="104.31" transform="matrix(0.7071 -0.7071 0.7071 0.7071 -162.2583 -168.9381)" class="st2" width="14.17" height="14.17"/>
<rect x="-272.25" y="124.2" transform="matrix(0.7071 -0.7071 0.7071 0.7071 -170.496 -149.0505)" class="st0" width="14.17" height="14.17"/>
<rect x="-252.35" y="104.29" transform="matrix(0.7071 -0.7071 0.7071 0.7071 -150.5888 -140.8046)" class="st3" width="14.17" height="14.17"/>
<g>
	
		<rect x="-423.88" y="342.17" transform="matrix(-0.7071 0.7071 -0.7071 -0.7071 -472.5768 884.1182)" class="st0" width="8.97" height="4.04"/>
	
		<rect x="-423.93" y="332.92" transform="matrix(-0.7071 -0.7071 0.7071 -0.7071 -952.8719 275.1903)" class="st0" width="8.97" height="4.04"/>
	
		<rect x="-414.68" y="332.97" transform="matrix(-0.7071 0.7071 -0.7071 -0.7071 -463.3798 861.9147)" class="st0" width="8.97" height="4.04"/>
	
		<rect x="-414.68" y="342.17" transform="matrix(0.7071 0.7071 -0.7071 0.7071 123.2314 390.8635)" class="st0" width="8.97" height="4.04"/>
	
		<rect x="-418.48" y="325.47" transform="matrix(0.7071 -0.7071 0.7071 0.7071 -354.2433 -196.8881)" class="st1" width="7.39" height="7.39"/>
	
		<rect x="-428.85" y="335.85" transform="matrix(0.7071 -0.7071 0.7071 0.7071 -364.6177 -201.1853)" class="st2" width="7.39" height="7.39"/>
	
		<rect x="-418.49" y="346.21" transform="matrix(0.7071 -0.7071 0.7071 0.7071 -368.9107 -190.8211)" class="st0" width="7.39" height="7.39"/>
	
		<rect x="-408.12" y="335.84" transform="matrix(0.7071 -0.7071 0.7071 0.7071 -358.5363 -186.5239)" class="st3" width="7.39" height="7.39"/>
</g>
<rect x="-312.66" y="213.39" transform="matrix(0.7071 -0.7071 0.7071 0.7071 -248.0396 -154.8345)" class="st1" width="3.47" height="17.21"/>
<rect x="-313.27" y="224.3" transform="matrix(0.7071 -0.7071 0.7071 0.7071 -252.9169 -153.3226)" class="st0" width="3.47" height="8.68"/>
<rect x="-299.06" y="224.53" transform="matrix(0.7071 0.7071 -0.7071 0.7071 77.7627 278.5258)" class="st3" width="3.47" height="17.21"/>
<rect x="-305.71" y="228.18" transform="matrix(0.7071 0.7071 -0.7071 0.7071 75.383 283.0436)" class="st0" width="3.47" height="8.68"/>
<rect x="-309.82" y="237.99" transform="matrix(-0.7071 0.7071 -0.7071 -0.7071 -351.5696 638.819)" class="st2" width="3.47" height="17.21"/>
<rect x="-309.21" y="235.61" transform="matrix(-0.7071 0.7071 -0.7071 -0.7071 -355.2196 627.0442)" class="st0" width="3.47" height="8.68"/>
<rect x="-323.42" y="226.86" transform="matrix(-0.7071 -0.7071 0.7071 -0.7071 -715.6386 174.4914)" class="st2" width="3.47" height="17.21"/>
<rect x="-316.77" y="231.73" transform="matrix(-0.7071 -0.7071 0.7071 -0.7071 -704.7316 180.2366)" class="st0" width="3.47" height="8.68"/>
<rect x="-308.96" y="281.28" transform="matrix(0.7071 -0.7071 0.7071 0.7071 -291.9458 -133.5824)" class="st0" width="3.47" height="8.68"/>
<rect x="-296.62" y="286.03" transform="matrix(0.7071 0.7071 -0.7071 0.7071 120.0944 294.0375)" class="st3" width="3.47" height="11.91"/>
<rect x="-306.42" y="274.84" transform="matrix(0.7071 -0.7071 0.7071 0.7071 -287.791 -133.1994)" class="st1" width="3.47" height="11.91"/>
<rect x="-317.41" y="284.43" transform="matrix(-0.7071 -0.7071 0.7071 -0.7071 -744.2245 272.5104)" class="st2" width="3.47" height="11.91"/>
<rect x="-307.44" y="295.81" transform="matrix(-0.7071 0.7071 -0.7071 -0.7071 -308.4868 731.299)" class="st1" width="3.47" height="11.91"/>
<rect x="-301.39" y="285.16" transform="matrix(0.7071 0.7071 -0.7071 0.7071 116.9389 296.6826)" class="st0" width="3.47" height="8.68"/>
<rect x="-304.9" y="292.6" transform="matrix(-0.7071 0.7071 -0.7071 -0.7071 -307.5624 721.268)" class="st0" width="3.47" height="8.68"/>
<rect x="-312.46" y="288.72" transform="matrix(-0.7071 -0.7071 0.7071 -0.7071 -737.6592 280.5617)" class="st0" width="3.47" height="8.68"/>
<rect x="-474.88" y="328.86" transform="matrix(0.7071 -0.7071 0.7071 0.7071 -374.1883 -236.9706)" class="st0" width="3.47" height="8.68"/>
<rect x="-462.55" y="333.61" transform="matrix(0.7071 0.7071 -0.7071 0.7071 105.1421 425.298)" class="st3" width="3.47" height="11.91"/>
<rect x="-472.34" y="322.42" transform="matrix(0.7071 -0.7071 0.7071 0.7071 -370.0335 -236.5877)" class="st1" width="3.47" height="11.91"/>
<rect x="-483.33" y="332.02" transform="matrix(-0.7071 -0.7071 0.7071 -0.7071 -1061.1158 236.4126)" class="st2" width="3.47" height="11.91"/>
<rect x="-473.36" y="343.39" transform="matrix(-0.7071 0.7071 -0.7071 -0.7071 -558.0878 929.8499)" class="st1" width="3.47" height="11.91"/>
<rect x="-467.32" y="332.74" transform="matrix(0.7071 0.7071 -0.7071 0.7071 101.9867 427.9431)" class="st0" width="3.47" height="8.68"/>
<rect x="-470.82" y="340.18" transform="matrix(-0.7071 0.7071 -0.7071 -0.7071 -557.1634 919.8188)" class="st0" width="3.47" height="8.68"/>
<rect x="-478.38" y="336.3" transform="matrix(-0.7071 -0.7071 0.7071 -0.7071 -1054.5505 244.4638)" class="st0" width="3.47" height="8.68"/>
<rect x="-358.99" y="284.31" transform="matrix(-6.535873e-07 -1 1 -6.535873e-07 -645.9019 -68.6058)" class="st0" width="3.47" height="8.68"/>
<rect x="-345.77" y="278.47" class="st3" width="3.47" height="11.91"/>
<rect x="-360.6" y="277.49" transform="matrix(-9.803816e-07 -1 1 -9.803816e-07 -642.3103 -75.4279)" class="st1" width="3.47" height="11.91"/>
<rect x="-361.59" y="292.04" transform="matrix(-1 9.803828e-07 -9.803828e-07 -1 -719.7144 595.9964)" class="st2" width="3.47" height="11.91"/>
<rect x="-346.5" y="293.03" transform="matrix(9.803824e-07 1 -1 9.803824e-07 -45.7784 643.751)" class="st1" width="3.47" height="11.91"/>
<rect x="-350.9" y="281.71" class="st0" width="3.47" height="8.68"/>
<rect x="-348.12" y="289.44" transform="matrix(6.535873e-07 1 -1 6.535873e-07 -52.6007 640.1594)" class="st0" width="3.47" height="8.68"/>
<rect x="-356.21" y="292.04" transform="matrix(-1 9.803822e-07 -9.803822e-07 -1 -708.9437 592.766)" class="st0" width="3.47" height="8.68"/>
<g>
	<g>
		<text transform="matrix(1 0 0 1 200.6153 228.4158)" class="st5 st6 st7">Parexellence</text>
	</g>
	<g id="Icon_Final">
		
			<rect x="147.21" y="193.13" transform="matrix(-6.535873e-07 -1 1 -6.535873e-07 -51.4241 353.1868)" class="st8" width="7.34" height="18.36"/>
		<rect x="175.18" y="180.79" class="st9" width="7.34" height="25.19"/>
		
			<rect x="143.79" y="178.7" transform="matrix(-9.803817e-07 -1 1 -9.803817e-07 -43.8273 338.7576)" class="st5" width="7.34" height="25.19"/>
		
			<rect x="141.7" y="209.49" transform="matrix(-1 9.803829e-07 -9.803829e-07 -1 290.7497 444.163)" class="st10" width="7.34" height="25.19"/>
		
			<rect x="173.62" y="211.58" transform="matrix(9.803827e-07 1 -1 9.803827e-07 401.4675 46.8757)" class="st5" width="7.34" height="25.19"/>
		<rect x="164.32" y="187.62" class="st8" width="7.34" height="18.36"/>
		
			<rect x="170.21" y="203.98" transform="matrix(6.535872e-07 1 -1 6.535872e-07 387.0383 39.279)" class="st8" width="7.34" height="18.36"/>
		
			<rect x="153.09" y="209.49" transform="matrix(-1 9.803821e-07 -9.803821e-07 -1 313.5303 437.3304)" class="st8" width="7.34" height="18.36"/>
	</g>
</g>
<g>
	<text transform="matrix(1 0 0 1 -390.3248 -110.8608)" class="st1" style="font-family:'Soleil-Bold'; font-size:30.8333px;">Parexellence</text>
</g>
<g>
	
		<rect x="-414.29" y="-130.5" transform="matrix(-6.535875e-07 -1 1 -6.535875e-07 -286.3884 -538.7189)" class="st0" width="3.47" height="8.68"/>
	<rect x="-401.07" y="-136.34" class="st3" width="3.47" height="11.91"/>
	
		<rect x="-415.9" y="-137.33" transform="matrix(-9.803816e-07 -1 1 -9.803816e-07 -282.7968 -545.5411)" class="st1" width="3.47" height="11.91"/>
	
		<rect x="-416.89" y="-122.77" transform="matrix(-1 9.803824e-07 -9.803824e-07 -1 -830.3141 -233.6299)" class="st2" width="3.47" height="11.91"/>
	
		<rect x="-401.8" y="-121.78" transform="matrix(9.803828e-07 1 -1 9.803828e-07 -515.8912 284.2379)" class="st1" width="3.47" height="11.91"/>
	<rect x="-406.2" y="-133.11" class="st0" width="3.47" height="8.68"/>
	
		<rect x="-403.42" y="-125.37" transform="matrix(6.535873e-07 1 -1 6.535873e-07 -522.7134 280.6461)" class="st0" width="3.47" height="8.68"/>
	
		<rect x="-411.51" y="-122.77" transform="matrix(-1 9.803822e-07 -9.803822e-07 -1 -819.5434 -236.8604)" class="st0" width="3.47" height="8.68"/>
</g>
<g>
	<text transform="matrix(1 0 0 1 -390.3248 -65.8235)" class="st1" style="font-family:'Soleil-Bold'; font-size:30.8333px;">Parexellence</text>
</g>
<g>
	
		<rect x="-414.29" y="-85.47" transform="matrix(-6.535875e-07 -1 1 -6.535875e-07 -331.4258 -493.6815)" class="st0" width="3.47" height="8.68"/>
	<rect x="-401.07" y="-91.3" class="st3" width="3.47" height="11.91"/>
	
		<rect x="-415.9" y="-92.29" transform="matrix(-9.803816e-07 -1 1 -9.803816e-07 -327.8342 -500.5037)" class="st1" width="3.47" height="11.91"/>
	
		<rect x="-416.89" y="-77.73" transform="matrix(-1 9.803828e-07 -9.803828e-07 -1 -830.314 -143.5552)" class="st2" width="3.47" height="11.91"/>
	
		<rect x="-401.8" y="-76.74" transform="matrix(9.803828e-07 1 -1 9.803828e-07 -470.8538 329.2752)" class="st1" width="3.47" height="11.91"/>
	<rect x="-406.2" y="-88.07" class="st0" width="3.47" height="8.68"/>
	
		<rect x="-403.42" y="-80.34" transform="matrix(6.535873e-07 1 -1 6.535873e-07 -477.6761 325.6834)" class="st0" width="3.47" height="8.68"/>
	
		<rect x="-411.51" y="-77.73" transform="matrix(-1 9.803822e-07 -9.803822e-07 -1 -819.5433 -146.7856)" class="st0" width="3.47" height="8.68"/>
</g>
<rect x="-230.86" y="224.7" class="st1" width="3.47" height="8.68"/>
<rect x="-235.99" y="224.7" class="st0" width="3.47" height="8.68"/>
<rect x="-233.42" y="237.96" transform="matrix(1.648311e-07 1 -1 1.648311e-07 10.6092 473.9859)" class="st3" width="3.47" height="8.68"/>
<rect x="-233.42" y="232.83" transform="matrix(3.267934e-07 1 -1 3.267934e-07 5.4779 468.8544)" class="st0" width="3.47" height="8.68"/>
<rect x="-246.29" y="235.39" transform="matrix(-1 -5.241477e-13 5.241477e-13 -1 -489.1097 479.4637)" class="st2" width="3.47" height="8.68"/>
<rect x="-241.16" y="235.39" transform="matrix(-1 -1.048173e-12 1.048173e-12 -1 -478.8467 479.4637)" class="st0" width="3.47" height="8.68"/>
<rect x="-243.76" y="222.17" transform="matrix(-1.648301e-07 -1 1 -1.648301e-07 -468.5354 -15.5183)" class="st2" width="3.47" height="8.68"/>
<rect x="-243.76" y="227.3" transform="matrix(-3.267934e-07 -1 1 -3.267934e-07 -473.667 -10.3866)" class="st0" width="3.47" height="8.68"/>
<rect x="-236.08" y="262.45" transform="matrix(0.7071 -0.7071 0.7071 0.7071 -257.2836 -87.5628)" class="st1" width="3.47" height="8.68"/>
<rect x="-239.7" y="266.08" transform="matrix(0.7071 -0.7071 0.7071 0.7071 -260.9121 -89.0658)" class="st0" width="3.47" height="8.68"/>
<rect x="-228.51" y="273.64" transform="matrix(0.7071 0.7071 -0.7071 0.7071 130.139 241.7732)" class="st3" width="3.47" height="8.68"/>
<rect x="-232.14" y="270.01" transform="matrix(0.7071 0.7071 -0.7071 0.7071 126.5106 243.2761)" class="st0" width="3.47" height="8.68"/>
<rect x="-239.42" y="280.92" transform="matrix(-0.7071 0.7071 -0.7071 -0.7071 -204.0495 655.0444)" class="st1" width="3.47" height="8.68"/>
<rect x="-235.8" y="277.29" transform="matrix(-0.7071 0.7071 -0.7071 -0.7071 -200.421 646.2844)" class="st0" width="3.47" height="8.68"/>
<rect x="-246.99" y="269.79" transform="matrix(-0.7071 -0.7071 0.7071 -0.7071 -612.506 294.5405)" class="st2" width="3.47" height="8.68"/>
<rect x="-243.36" y="273.41" transform="matrix(-0.7071 -0.7071 0.7071 -0.7071 -608.8773 303.3006)" class="st0" width="3.47" height="8.68"/>
</svg>
